<?xml version="1.0" standalone="no"?>
<!DOCTYPE svg PUBLIC "-//W3C//DTD SVG 20010904//EN"
 "http://www.w3.org/TR/2001/REC-SVG-20010904/DTD/svg10.dtd">
<svg version="1.0" xmlns="http://www.w3.org/2000/svg"
 width="683.000000pt" height="683.000000pt" viewBox="0 0 683.000000 683.000000"
 preserveAspectRatio="xMidYMid meet">
<metadata>
Created by potrace 1.11, written by Peter Selinger 2001-2013
</metadata>
<g transform="translate(0.000000,683.000000) scale(0.100000,-0.100000)"
fill="#000000" stroke="none">
<path d="M3220 5894 c-217 -25 -368 -91 -484 -212 -121 -125 -179 -253 -206
-457 -11 -87 -8 -421 6 -587 6 -62 8 -67 32 -72 15 -3 43 -2 62 2 32 8 35 11
33 42 -2 39 -22 56 -39 32 -9 -12 -16 -14 -24 -6 -27 27 15 57 97 68 35 5 44
3 52 -13 6 -10 7 -21 4 -25 -3 -3 -1 -6 5 -6 16 0 15 -27 -1 -33 -8 -3 -14
-19 -15 -35 0 -26 4 -31 32 -36 18 -4 44 -2 57 2 l23 9 -23 12 c-13 7 -20 18
-17 27 3 8 2 14 -2 14 -5 0 -16 24 -27 53 -10 28 -25 62 -33 74 -7 12 -12 28
-10 35 3 7 -1 19 -9 26 -7 8 -11 17 -8 22 3 4 -2 10 -9 13 -8 3 -20 15 -26 26
-9 18 -8 20 7 14 10 -4 21 -11 25 -17 5 -8 8 -7 8 1 0 7 7 10 15 7 8 -4 15
-13 15 -21 0 -8 -4 -11 -10 -8 -5 3 -10 0 -10 -8 0 -19 39 -53 82 -72 43 -17
68 -52 44 -61 -8 -3 -20 -3 -26 1 -16 10 -12 -11 5 -25 21 -18 -3 -34 -25 -17
-10 8 -9 5 3 -9 9 -11 17 -26 17 -32 0 -7 5 -12 10 -12 6 0 10 5 10 10 0 6 9
10 20 10 11 0 20 -4 20 -10 0 -5 9 -10 20 -10 18 0 40 -26 40 -49 0 -6 -10
-11 -23 -11 -13 0 -28 -5 -35 -12 -8 -8 -15 -8 -27 2 -13 11 -15 10 -9 -3 3
-9 14 -19 25 -22 45 -14 13 -23 -73 -19 -96 4 -309 23 -319 29 -3 2 -72 9
-154 15 -145 11 -215 27 -215 51 0 17 -68 4 -91 -17 -27 -24 -24 -39 15 -82
52 -57 293 -166 413 -187 49 -8 64 -22 65 -64 1 -24 5 -30 22 -28 16 2 22 -4
24 -25 2 -20 9 -28 23 -28 10 0 19 5 19 11 0 7 9 38 21 70 24 66 26 67 158 83
77 9 98 9 123 -3 25 -12 30 -12 41 1 15 18 63 39 71 31 3 -4 -5 -13 -18 -22
-52 -35 -166 -132 -195 -168 -33 -40 -62 -114 -59 -150 2 -25 18 -32 18 -8 0
9 9 15 23 15 20 1 68 13 135 35 12 4 22 11 22 16 0 9 -65 5 -92 -6 -14 -5 -18
-2 -18 13 0 15 5 18 23 15 14 -3 29 3 41 16 12 13 31 21 52 21 18 0 34 4 36 8
2 4 21 15 43 23 23 9 41 22 43 33 3 14 0 17 -12 13 -9 -4 -23 -4 -31 0 -14 5
-13 8 4 19 28 20 113 35 128 23 8 -7 15 -4 22 10 14 25 14 34 1 26 -15 -9 -12
16 5 49 19 36 19 46 0 46 -8 0 -15 5 -15 11 0 5 5 7 10 4 6 -3 10 -1 10 4 0 6
6 11 13 11 13 0 97 80 97 92 0 6 -53 22 -75 23 -5 0 -14 5 -18 10 -6 7 -10 6
-13 -2 -4 -9 -13 -9 -30 -3 -14 6 -23 6 -20 1 7 -10 -27 -21 -66 -21 -15 0
-31 -8 -37 -17 -8 -15 -12 -16 -22 -5 -10 9 -10 12 -1 12 7 0 12 7 12 15 0 8
19 23 42 34 l41 19 -29 15 c-45 23 -65 51 -64 88 0 19 1 55 2 81 0 33 4 45 13
42 16 -7 56 -108 44 -112 -5 -2 -2 -11 7 -19 10 -11 14 -26 10 -44 -4 -23 -1
-28 22 -32 33 -6 36 -4 23 20 -13 24 -41 85 -41 90 0 12 20 -1 25 -17 3 -11
10 -20 15 -20 5 0 7 7 3 16 -4 12 0 15 18 12 13 -1 24 -10 25 -18 1 -8 2 -30
2 -48 2 -30 5 -33 25 -27 12 4 32 18 45 31 15 16 34 24 58 24 57 0 164 75 164
116 0 12 9 32 20 45 19 23 19 23 20 4 0 -12 -5 -26 -11 -32 -13 -13 -20 -66
-11 -79 4 -5 22 -19 40 -30 19 -12 33 -24 33 -28 -1 -3 -1 -10 -1 -15 0 -5 32
-26 72 -46 66 -34 80 -37 157 -38 52 0 72 -3 51 -6 -41 -7 -32 -16 25 -26 85
-14 88 -18 53 -55 -17 -18 -18 -22 -5 -17 9 3 19 2 22 -3 7 -11 6 -11 -42 -15
-17 -1 -42 -10 -54 -19 -34 -23 -66 -20 -85 9 -22 33 -51 50 -51 29 0 -9 6
-13 15 -9 12 4 13 3 2 -10 -7 -8 -20 -14 -28 -13 -13 2 -17 -10 -20 -62 l-3
-65 43 -35 c24 -18 35 -25 26 -14 -21 24 -34 74 -20 74 6 0 32 -27 57 -60 52
-68 73 -77 166 -72 l62 4 -32 25 c-17 14 -38 38 -46 54 -10 18 -23 29 -36 29
-20 0 -20 -2 -6 -23 17 -26 17 -73 -1 -70 -21 5 -62 46 -87 89 -31 52 -31 57
-2 48 12 -4 29 -8 37 -9 8 -1 28 -7 45 -14 16 -7 38 -10 49 -7 10 3 32 -2 48
-10 25 -13 29 -20 26 -49 -2 -25 3 -39 17 -49 24 -17 20 -22 -20 -30 -16 -3
-50 -10 -75 -15 -72 -16 -120 -13 -157 10 l-35 22 -40 -22 c-22 -11 -44 -18
-49 -15 -5 3 -9 31 -9 62 0 38 -7 70 -20 95 -25 46 -25 47 -1 47 28 0 34 16
17 42 -14 23 -30 79 -31 108 0 8 -10 16 -22 18 -28 4 -30 22 -3 22 33 0 23 29
-27 84 -26 28 -51 53 -55 54 -5 2 -9 -23 -10 -55 -1 -49 -2 -52 -5 -15 -2 23
-5 42 -7 42 -6 0 -120 -117 -141 -145 -25 -33 -34 -67 -40 -144 -2 -28 -11
-66 -21 -86 -9 -20 -15 -38 -12 -40 2 -2 15 20 28 50 26 59 29 61 95 44 l43
-11 -34 -56 c-18 -31 -36 -70 -39 -87 -4 -16 -11 -45 -17 -63 l-10 -34 -23 22
c-30 28 -64 23 -84 -12 -25 -42 -60 -65 -247 -163 -57 -29 -80 -55 -51 -55 8
0 46 15 83 32 64 30 77 33 174 33 58 0 123 -2 145 -3 81 -7 143 -2 155 13 6 7
25 17 41 20 16 4 36 16 44 28 8 12 15 16 15 9 0 -6 7 -12 15 -12 31 0 11 -34
-28 -49 -34 -13 -27 -31 12 -31 20 0 34 -8 45 -25 9 -14 23 -25 30 -25 8 0 16
-6 19 -14 3 -7 19 -16 36 -19 19 -4 31 -13 31 -22 0 -10 -5 -13 -12 -9 -7 4
-1 -6 14 -22 15 -16 27 -38 26 -49 0 -11 2 -32 7 -47 6 -23 4 -26 -14 -21 -18
5 -20 1 -18 -51 1 -40 -2 -59 -12 -65 -8 -5 -15 -22 -17 -37 -2 -15 -10 -32
-19 -36 -8 -5 -15 -20 -15 -33 0 -13 -5 -27 -11 -30 -6 -4 -8 -13 -5 -21 8
-20 -23 -54 -42 -46 -11 4 -14 1 -9 -10 6 -17 -23 -58 -40 -58 -6 0 -29 -18
-53 -40 -23 -21 -50 -42 -61 -45 -10 -4 -19 -11 -19 -17 0 -5 -6 -8 -14 -5 -8
3 -16 2 -18 -3 -5 -13 -127 -20 -134 -8 -4 6 -10 5 -15 -3 -5 -8 -9 -9 -9 -3
0 7 -22 12 -55 12 -33 0 -53 -4 -49 -9 3 -6 -9 -9 -30 -7 -20 1 -36 6 -36 10
0 4 -11 8 -24 8 -13 0 -27 7 -30 16 -4 9 -9 14 -13 10 -8 -8 -73 54 -73 69 0
16 -35 47 -43 39 -4 -4 -12 6 -18 22 -6 16 -13 24 -16 17 -2 -6 4 -28 13 -50
10 -21 20 -45 23 -55 8 -22 77 -103 130 -152 25 -23 56 -51 68 -63 13 -13 29
-23 36 -23 18 0 117 -37 132 -50 13 -10 73 -16 220 -19 43 -1 56 -4 45 -11
-12 -7 -8 -10 15 -11 26 0 27 -2 10 -9 -17 -7 -17 -9 -3 -9 10 -1 25 -15 33
-32 15 -29 15 -32 -2 -52 -10 -12 -24 -26 -30 -30 -7 -4 -13 -14 -13 -22 0 -7
-3 -15 -8 -17 -4 -1 -21 -30 -39 -63 -29 -55 -35 -60 -69 -63 -23 -2 -45 -12
-57 -25 -11 -12 -23 -21 -28 -19 -16 4 -49 -18 -49 -33 0 -8 -4 -15 -10 -15
-5 0 -10 -4 -10 -10 0 -5 7 -10 16 -10 8 0 13 -4 10 -9 -12 -18 55 -33 171
-37 82 -2 130 -8 145 -18 13 -7 45 -19 71 -25 46 -11 53 -10 115 20 97 45 213
166 269 279 23 47 46 101 52 120 7 26 9 -2 10 -115 1 -153 -16 -342 -44 -495
-9 -47 -20 -111 -25 -142 -6 -32 -15 -69 -20 -83 -5 -14 -16 -69 -25 -122 -32
-197 -106 -472 -214 -791 -44 -128 -83 -232 -88 -232 -13 2 -38 88 -98 340
-54 224 -86 337 -115 407 -13 29 -11 42 24 153 l37 121 -41 127 c-23 70 -48
135 -57 144 -10 12 -31 18 -58 18 -22 0 -46 5 -53 12 -15 15 -24 -10 -57 -156
-28 -124 -33 -175 -19 -197 18 -30 44 -117 50 -171 6 -52 4 -62 -20 -97 -55
-79 -79 -179 -91 -377 -9 -157 -16 -218 -30 -289 -8 -38 -19 -103 -25 -143 -7
-39 -15 -72 -19 -72 -5 0 -16 30 -25 68 -10 37 -22 78 -26 92 -5 14 -16 59
-25 100 -10 41 -24 102 -32 135 -27 112 -73 344 -73 369 0 14 -4 28 -10 31
-19 11 -51 141 -60 238 -9 102 1 163 23 151 7 -4 -4 11 -24 32 -52 57 -50 50
-109 349 -12 59 -29 375 -27 485 2 119 -11 124 -67 25 -99 -178 -173 -282
-298 -416 -44 -48 -173 -137 -266 -183 -48 -25 -231 -94 -492 -187 -58 -20
-126 -46 -151 -57 -25 -11 -120 -41 -210 -67 -192 -56 -254 -82 -369 -158
-116 -76 -191 -179 -262 -365 -64 -165 -77 -229 -102 -497 -29 -302 -36 -430
-36 -617 l0 -188 2969 0 c2822 0 2969 1 2965 18 -10 51 -44 281 -54 372 -6 58
-17 143 -25 190 -8 47 -23 137 -33 200 -18 110 -82 370 -117 475 -27 81 -82
187 -117 227 -33 37 -119 103 -199 153 -38 25 -140 69 -369 161 -47 19 -107
44 -135 55 -27 12 -104 40 -170 64 -183 66 -237 88 -280 114 -126 77 -243 159
-284 199 -25 25 -84 76 -131 112 -113 89 -197 201 -286 380 -37 78 -76 148
-86 157 -10 9 -18 26 -18 37 0 12 25 98 55 191 30 94 60 189 65 213 10 37 14
42 39 42 54 0 76 49 60 129 -10 46 -9 70 5 137 9 45 16 90 16 100 0 10 22 72
50 136 61 144 85 257 65 305 -20 47 -60 46 -98 -2 -15 -19 -32 -35 -37 -35 -6
0 -10 35 -10 79 0 88 12 111 58 111 125 1 368 94 430 164 39 44 39 56 7 95
-44 51 -74 55 -280 36 -101 -10 -190 -15 -198 -12 -11 4 -14 20 -12 61 3 53 2
56 -21 56 -33 0 -31 16 3 25 35 9 103 77 103 104 0 16 -6 21 -25 21 -14 0 -25
-4 -25 -8 0 -5 -6 -9 -12 -10 -58 -5 -106 -17 -121 -30 -10 -9 -25 -17 -33
-18 -9 -1 -24 -10 -35 -19 -10 -10 -27 -15 -39 -12 -11 3 -20 1 -20 -4 0 -5
-8 -9 -17 -9 -16 -1 -16 -2 1 -15 19 -15 19 -15 -2 -15 -12 0 -22 5 -22 10 0
6 -27 10 -61 10 -54 0 -60 2 -49 15 9 11 22 14 44 10 52 -11 64 -7 99 27 23
23 32 40 27 52 -5 16 -7 16 -24 -3 -11 -12 -23 -21 -28 -21 -13 0 -9 38 5 43
9 4 9 6 0 6 -7 1 -28 -16 -48 -36 -31 -32 -39 -35 -55 -25 -16 10 -22 7 -39
-16 -35 -46 -41 -52 -57 -52 -20 0 -9 44 27 99 16 24 26 47 24 51 -15 24 242
34 295 12 19 -8 42 -16 50 -17 8 -1 26 -5 39 -9 l24 -8 -6 218 c-4 137 -11
243 -21 284 -48 214 -198 383 -409 461 -162 61 -462 83 -717 53z m-452 -970
c29 -20 29 -38 0 -28 -13 4 -35 8 -51 9 -32 2 -42 9 -32 24 9 16 57 13 83 -5z
m103 -43 c33 -33 36 -49 12 -58 -11 -4 -26 4 -45 25 -52 59 -23 88 33 33z
m1069 19 c0 -5 -14 -17 -30 -25 -17 -9 -36 -27 -42 -40 -12 -26 -32 -33 -43
-15 -4 6 1 22 10 36 23 36 105 70 105 44z m-966 -83 c4 -18 9 -53 10 -78 2
-25 11 -60 20 -77 22 -43 8 -40 -39 8 -41 42 -66 97 -54 121 4 8 13 29 19 47
15 39 34 30 44 -21z m1440 -1 c-6 -17 -34 -30 -34 -16 0 5 8 14 18 19 22 13
22 13 16 -3z m-632 -28 c-7 -7 -12 -8 -12 -2 0 6 3 14 7 17 3 4 9 5 12 2 2 -3
-1 -11 -7 -17z m565 16 c-3 -3 -12 -4 -19 -1 -8 3 -5 6 6 6 11 1 17 -2 13 -5z
m-597 -64 c-10 -18 -9 -24 1 -31 8 -5 20 -7 27 -4 6 2 12 1 12 -3 0 -11 -17
-34 -24 -33 -26 4 -46 -1 -41 -9 7 -12 -5 -13 -23 -1 -11 6 -7 19 18 60 31 50
54 66 30 21z m435 -19 c-3 -6 -11 -8 -17 -5 -6 4 -5 9 3 15 16 10 23 4 14 -10z
m103 -8 c-10 -2 -26 -2 -35 0 -10 3 -2 5 17 5 19 0 27 -2 18 -5z m-645 -60
c-7 -2 -19 -2 -25 0 -7 3 -2 5 12 5 14 0 19 -2 13 -5z m185 -23 c15 0 35 -7
45 -14 17 -13 16 -14 -3 -19 -25 -6 -112 24 -118 41 -3 9 3 10 23 2 14 -5 38
-10 53 -10z m-264 -90 c3 -25 2 -52 -4 -60 -8 -12 -10 -11 -10 7 0 12 -5 25
-10 28 -8 5 -7 11 1 21 6 8 8 25 4 41 -4 18 -3 24 3 18 5 -5 12 -30 16 -55z
m433 14 c-3 -3 -12 -4 -19 -1 -8 3 -5 6 6 6 11 1 17 -2 13 -5z m-497 -23 c0
-13 -27 -21 -71 -21 -37 0 -48 8 -32 23 10 10 103 8 103 -2z m-310 -41 c-13
-11 -28 -20 -34 -20 -14 1 32 40 47 40 5 0 0 -9 -13 -20z m796 -114 c-20 -21
-35 -26 -74 -26 -35 0 -52 4 -56 15 -6 17 29 28 105 33 l51 3 -26 -25z m74
-57 c0 -6 6 -9 13 -6 7 3 20 0 29 -7 13 -9 8 -11 -26 -11 -52 2 -97 15 -90 26
8 13 74 11 74 -2z m199 -74 c0 -5 -6 1 -14 15 -8 14 -14 30 -14 35 0 6 6 -1
14 -15 8 -14 14 -29 14 -35z m-94 -29 c82 -34 105 -40 105 -26 0 6 5 8 10 5 6
-3 10 -14 10 -24 0 -24 -56 -26 -127 -6 -37 11 -59 25 -76 48 -42 56 -43 62
-11 44 16 -9 56 -27 89 -41z m-1175 34 c0 -5 -5 -10 -11 -10 -5 0 -7 5 -4 10
3 6 8 10 11 10 2 0 4 -4 4 -10z m20 -55 c0 -2 -13 -5 -29 -7 -19 -3 -27 0 -24
7 3 10 53 9 53 0z m-82 -18 c10 4 13 2 8 -5 -11 -18 -46 -14 -46 5 0 13 3 14
11 6 6 -6 18 -9 27 -6z m-73 -6 c3 -5 1 -12 -5 -16 -5 -3 -10 1 -10 9 0 18 6
21 15 7z m1007 -77 c42 -6 44 -8 45 -40 1 -23 -4 -34 -13 -34 -16 0 -19 -16
-4 -25 18 -11 10 -24 -17 -27 -22 -2 -27 -8 -25 -23 3 -17 1 -16 -17 7 -20 25
-69 53 -135 78 -38 14 -24 29 47 52 63 20 63 20 119 12z m115 -196 c28 -26 29
-38 4 -66 -23 -28 -25 -27 -45 3 -15 23 -15 27 -2 41 8 8 13 21 10 29 -9 21 6
18 33 -7z m12 -153 l0 -20 -9 20 c-5 11 -9 27 -9 35 -1 13 0 13 9 0 5 -8 9
-24 9 -35z m28 -197 c-2 -13 -4 -5 -4 17 -1 22 1 32 4 23 2 -10 2 -28 0 -40z
m-18 -235 c0 -5 -4 -17 -9 -28 -8 -18 -9 -17 -9 8 -1 15 4 27 9 27 6 0 10 -3
9 -7z m-19 -57 c0 -3 -4 -8 -10 -11 -5 -3 -10 -1 -10 4 0 6 5 11 10 11 6 0 10
-2 10 -4z m-138 -216 c-3 -21 -10 -30 -23 -30 -25 0 -24 15 3 40 12 11 22 20
23 20 1 0 0 -13 -3 -30z"/>
<path d="M4200 4870 c0 -5 7 -10 16 -10 8 0 12 5 9 10 -3 6 -10 10 -16 10 -5
0 -9 -4 -9 -10z"/>
<path d="M3449 4672 c-13 -10 -49 -30 -79 -44 -52 -25 -114 -77 -94 -79 77 -9
87 -7 107 15 70 74 107 115 107 120 0 11 -17 6 -41 -12z"/>
<path d="M3656 4543 c-10 -11 -7 -53 5 -53 6 0 9 -6 6 -13 -2 -6 6 -20 19 -30
23 -17 24 -17 24 2 0 10 6 22 13 24 6 3 3 6 -8 6 -22 1 -45 19 -45 35 0 5 8 2
18 -7 20 -18 32 -22 32 -9 0 12 -57 52 -64 45z"/>
<path d="M3750 4510 c0 -4 16 -15 36 -25 28 -13 38 -14 50 -4 12 10 13 9 8 -7
-5 -18 -5 -18 6 -1 11 18 13 18 27 -2 13 -20 43 -29 43 -13 -1 20 -21 33 -61
37 -24 2 -59 9 -76 14 -18 5 -33 6 -33 1z"/>
<path d="M3226 4315 c-3 -10 -5 -18 -4 -19 2 -1 11 -8 21 -15 14 -11 17 -11
17 1 0 8 -6 22 -13 32 -13 18 -14 18 -21 1z"/>
<path d="M3125 4185 c-30 -38 -31 -69 -1 -40 14 14 20 15 26 6 5 -9 9 -5 13
11 18 65 1 75 -38 23z"/>
<path d="M2424 4093 c-7 -25 13 -127 36 -187 17 -45 19 -27 5 46 -7 36 -10 89
-7 117 4 42 2 51 -12 51 -9 0 -19 -12 -22 -27z"/>
<path d="M2530 4113 c0 -17 27 -46 33 -36 4 6 -2 18 -13 28 -11 10 -20 14 -20
8z"/>
<path d="M3055 4110 c-3 -5 -2 -10 4 -10 5 0 13 5 16 10 3 6 2 10 -4 10 -5 0
-13 -4 -16 -10z"/>
<path d="M3157 4113 c-4 -3 -7 -12 -7 -19 0 -9 7 -10 30 -1 17 6 30 15 30 19
0 10 -44 11 -53 1z"/>
<path d="M3005 4070 c-3 -5 -1 -10 4 -10 6 0 11 5 11 10 0 6 -2 10 -4 10 -3 0
-8 -4 -11 -10z"/>
<path d="M2933 4029 c-25 -9 -30 -19 -10 -19 15 0 43 17 37 23 -3 3 -15 1 -27
-4z"/>
<path d="M2962 4000 c-18 -29 -15 -36 8 -15 20 18 26 35 12 35 -4 0 -13 -9
-20 -20z"/>
<path d="M3510 3919 c0 -5 5 -7 10 -4 6 3 10 8 10 11 0 2 -4 4 -10 4 -5 0 -10
-5 -10 -11z"/>
<path d="M2880 3889 c0 -5 5 -7 10 -4 6 3 10 8 10 11 0 2 -4 4 -10 4 -5 0 -10
-5 -10 -11z"/>
<path d="M2540 3826 c0 -8 5 -18 10 -21 6 -3 10 1 10 9 0 8 -4 18 -10 21 -5 3
-10 -1 -10 -9z"/>
<path d="M2589 3304 c-12 -14 -11 -16 5 -13 11 2 21 10 24 17 5 17 -13 15 -29
-4z"/>
</g>
</svg>
